<?xml version="1.0" standalone="no"?><!DOCTYPE svg PUBLIC "-//W3C//DTD SVG 1.1//EN" "http://www.w3.org/Graphics/SVG/1.1/DTD/svg11.dtd"><svg t="1716569254501" class="icon" viewBox="0 0 1024 1024" version="1.1" xmlns="http://www.w3.org/2000/svg" p-id="2823" xmlns:xlink="http://www.w3.org/1999/xlink" width="200" height="200"><path d="M300.8 268.8c-25.6 0-44.8-25.6-44.8-51.2V76.8c0-25.6 19.2-51.2 51.2-51.2 25.6 0 51.2 19.2 51.2 51.2v140.8c-6.4 25.6-25.6 51.2-57.6 51.2zM736 268.8c-25.6 0-51.2-19.2-51.2-51.2V76.8c0-25.6 19.2-51.2 51.2-51.2 25.6 0 51.2 19.2 51.2 51.2v140.8c0 25.6-25.6 51.2-51.2 51.2z" p-id="2824"></path><path d="M883.2 102.4h-83.2v115.2c0 38.4-32 64-64 64-38.4 0-64-32-64-64V102.4H371.2v115.2c0 38.4-32 64-64 64s-64-32-64-64V102.4H160c-51.2 0-89.6 38.4-89.6 89.6v160h902.4V192c0-51.2-38.4-89.6-89.6-89.6zM70.4 403.2v396.8c0 51.2 38.4 89.6 89.6 89.6h723.2c51.2 0 89.6-38.4 89.6-89.6V403.2H70.4zM768 768H275.2c-19.2 0-32-12.8-32-32 0-12.8 12.8-32 32-32H768c19.2 0 32 12.8 32 32-6.4 19.2-19.2 32-32 32z m25.6-217.6c0 19.2-12.8 32-32 32H275.2c-19.2 0-32-12.8-32-32s12.8-32 32-32H768c12.8 6.4 25.6 19.2 25.6 32z" p-id="2825"></path></svg>